<?xml version="1.0" encoding="utf-8"?>
<!-- Generator: Adobe Illustrator 18.0.0, SVG Export Plug-In . SVG Version: 6.00 Build 0)  -->
<!DOCTYPE svg PUBLIC "-//W3C//DTD SVG 1.1//EN" "http://www.w3.org/Graphics/SVG/1.1/DTD/svg11.dtd">
<svg version="1.1" id="Layer_1" xmlns="http://www.w3.org/2000/svg" xmlns:xlink="http://www.w3.org/1999/xlink" x="0px" y="0px"
	 viewBox="0 0 600 600" enable-background="new 0 0 600 600" xml:space="preserve">
<g id="OfRfaZ.tif">
	<g>
		<g>
			<path d="M314.3,194.2c2.5,0.8,3.4,2.8,3.7,5.3c0.2,1.8,0.6,3.6,1.2,5.3c1.6,3.9,4.8,5.9,9,6c0.8,0,1.7,0.1,2.5,0.2
				c2.3,0.5,3.7,2.3,3.5,4.3c-0.2,2-1.8,3.5-4.1,3.8c-7.5,0.7-14.6-3.1-18-9.9c-0.4-0.7-0.8-1.5-1.2-2.3c-8.6,4.7-17.3,5.5-26.1,1.4
				c-1.2,3.4-2.2,6.9-3.8,10c-1.5,2.8-3.6,5.3-5.8,7.6c-1.8,1.9-4.5,1.7-6,0c-1.4-1.6-1.4-4.1,0.4-5.9c5.3-5.2,7-11.6,6.9-18.7
				c0-0.5,0-1-0.1-1.5c-0.3-2.7,0.7-4.6,3.3-5.6c0.6,0,1.1,0,1.7,0c1.1,1.1,2.3,2.2,3.4,3.3c0.9,0.9,1.7,1.9,2.7,2.6
				c5.9,4.2,16.9,2.8,21.7-2.7c1-1.2,2.3-2.2,3.4-3.2C313.2,194.2,313.7,194.2,314.3,194.2z"/>
			<path d="M407.1,383.1c-19.6,5.5-39.3,11-59,16.5c-0.9-3.7,0.4-6.7,2.5-9.5c3-3.9,7-6.6,11.4-8.7c3.9-1.9,3.9-1.8,2.7-6
				c-3.3-11.8-6.6-23.5-9.9-35.3c-0.4-1.4-0.9-1.8-2.4-1.9c-9.1-0.6-16.5-4.8-22.9-11c-9.8-9.6-15.8-21.5-19.3-34.5
				c-2.8-10.2-4.9-20.6-7.2-30.9c0-0.2-0.1-0.3-0.5-1.1c-0.6,3.2-1.1,5.8-1.7,8.4c-3.3,14.9-5.6,30-11.7,44.1
				c-4.2,9.6-9.7,18.3-17.8,25.1c-5.6,4.7-11.9,8-19.4,8.4c-1.9,0.1-2.8,0.8-3.3,2.8c-3.4,12.6-7,25.2-10.5,37.8
				c-0.1,0.3-0.1,0.5-0.2,0.8c2.6,1.4,5.2,2.5,7.5,4.1c2.8,2,5.4,4.2,7.7,6.7c2.3,2.4,3.2,5.5,2.5,9.3c-19.8-5.5-39.5-11-59.3-16.6
				c0.8-2.9,2.7-4.7,5.1-5.9c3.3-1.8,7-2.5,10.7-2.5c3.2-0.1,6.4,0,9.9,0c1.2-4.3,2.5-9.1,3.9-13.9c2.3-8.4,4.7-16.8,7.1-25.2
				c0.4-1.2,0.1-1.9-0.9-2.6c-9.4-6.5-13.4-16.1-15.2-26.9c-2.5-15.6,0.8-30.5,5.8-45.2c4.9-14.1,9.9-28.1,14.9-42.1
				c0.2-0.5,0.4-1,0.7-1.7c20.2,5.6,40.4,11.3,60.9,17c-0.4-2.4-0.8-4.4-1.3-6.9c22.4-6.3,44.8-12.5,67.4-18.8
				c2.3,6.3,4.7,12.2,6.7,18.3c4.6,13.8,9.5,27.4,13.3,41.4c3.4,12.7,3.4,25.7-0.8,38.4c-2.6,7.7-5.8,12.1-14.2,18.8
				c3.8,13.7,7.6,27.4,11.5,41.1c9.6-0.6,19.3-2.2,25.6,7.2C407.2,382.5,407.2,382.8,407.1,383.1z M295.7,250.7
				c-17.6-4.9-34.8-9.7-52.1-14.5c-0.2,0.5-0.4,0.9-0.6,1.3c-4.4,12.5-8.7,25.1-13,37.6c-3.6,10.4-5.8,21-5.2,32.1
				c0.3,6.7,1.5,13.2,4.9,19.1c1.2,2.1,2.8,3.9,4.2,5.9c0.2-0.1,0.3-0.2,0.5-0.4c-0.3-0.9-0.6-1.7-0.8-2.6
				c-2.2-7.7-1.3-15.4-0.1-23.1c1.8-11.4,5.2-22.4,8.9-33.4c0.6-1.8,1.4-2.3,3.2-2.4c10.9-0.2,21.7-0.6,32.5-0.9
				c4.6-0.1,9.2-0.3,13.8-0.5C293.2,262.8,294.4,256.8,295.7,250.7z M340.3,325.1c-11.2-20.2-14-42.6-18.7-64.8
				c16.9,0,33.4,0,50.2,0c-4-11.2-7.8-22-11.7-32.9c-17.5,4.9-34.8,9.7-52.5,14.7c3.7,16.2,7.1,32.1,11,47.9
				c2.5,10.1,7.1,19.5,14,27.4C334.8,320.2,337.7,322.6,340.3,325.1z"/>
		</g>
	</g>
</g>
</svg>
