<?xml version="1.0" encoding="utf-8"?>
<!-- Generator: Adobe Illustrator 18.0.0, SVG Export Plug-In . SVG Version: 6.00 Build 0)  -->
<!DOCTYPE svg PUBLIC "-//W3C//DTD SVG 1.1//EN" "http://www.w3.org/Graphics/SVG/1.1/DTD/svg11.dtd">
<svg version="1.1" id="Layer_1" xmlns="http://www.w3.org/2000/svg" xmlns:xlink="http://www.w3.org/1999/xlink" x="0px" y="0px"
	 viewBox="0 0 600 600" enable-background="new 0 0 600 600" xml:space="preserve">
<g id="S9ySPv.tif">
	<g>
		<g>
			<path d="M290.5,194.7c7.7,0,15.5,0,23.2,0c0.6,0.3,1.2,0.7,1.8,0.9c12.5,3.8,19.6,13.4,19.6,26.4c0,8.8,0,17.6,0,26.5
				c0,6.3,0,12.6,0,19.3c1.9,0,3.4,0,4.8,0c13.9,0,27.8,0,41.8,0c11.2,0,20.8,6.7,24.8,17.3c0.5,1.4,1.1,2.8,1.6,4.2
				c0,7.7,0,15.5,0,23.2c-0.3,0.6-0.7,1.2-0.9,1.8c-3.9,12.5-13.4,19.6-26.4,19.6c-9.1,0-18.2,0-27.3,0c-6,0-12,0-18.5,0
				c0,1.9,0,3.4,0,4.9c0,13.9,0,27.8,0,41.8c0,11.4-6.9,21-17.7,24.9c-1.3,0.5-2.5,1-3.8,1.5c-7.7,0-15.5,0-23.2,0
				c-0.6-0.3-1.2-0.7-1.8-0.9c-12.5-3.8-19.6-13.4-19.6-26.4c0-8.8,0-17.6,0-26.5c0-6.3,0-12.6,0-19.3c-1.9,0-3.4,0-4.8,0
				c-13.9,0-27.8,0-41.8,0c-11.2,0-20.8-6.7-24.8-17.3c-0.5-1.4-1.1-2.8-1.6-4.2c0-7.7,0-15.5,0-23.2c0.3-0.6,0.7-1.2,0.9-1.8
				c3.9-12.5,13.4-19.6,26.4-19.6c9.1,0,18.2,0,27.3,0c6,0,12,0,18.5,0c0-1.9,0-3.4,0-4.9c0-13.9,0-27.8,0-41.8
				c0-11.4,6.9-21,17.7-24.9C288,195.8,289.3,195.2,290.5,194.7z"/>
		</g>
	</g>
</g>
</svg>
