<?xml version="1.0" encoding="utf-8"?>
<!-- Generator: Adobe Illustrator 18.0.0, SVG Export Plug-In . SVG Version: 6.00 Build 0)  -->
<!DOCTYPE svg PUBLIC "-//W3C//DTD SVG 1.1//EN" "http://www.w3.org/Graphics/SVG/1.1/DTD/svg11.dtd">
<svg version="1.1" id="Layer_1" xmlns="http://www.w3.org/2000/svg" xmlns:xlink="http://www.w3.org/1999/xlink" x="0px" y="0px"
	 viewBox="0 0 600 600" enable-background="new 0 0 600 600" xml:space="preserve">
<g id="Gift">
	<g id="ribbon">
		<g>
			<path d="M413.4,274.2c0,13.2,0.1,26.3,0,39.5c0,2.5-0.3,5-1.1,7.3c-1.8,5-5.8,7-10.7,5.5c-24.9-7.5-49.9-15.1-74.7-22.9
				c-6-1.9-9.9-6.6-10.1-13c-0.4-10.3-0.5-20.7-0.2-31c0.3-8.1,5.5-13.2,12.8-15.5c23.6-7.5,47.3-14.7,71-21.8
				c7.9-2.3,12.9,1.8,13,10.3C413.6,246.6,413.4,260.4,413.4,274.2z"/>
			<path d="M190.5,273.6c0-13.2-0.1-26.3,0-39.5c0.1-10.7,4.8-14.3,14.9-11.2c22.4,6.7,44.8,13.5,67.2,20.4
				c10.4,3.2,14.9,9.5,14.9,20.3c0,8.3,0.1,16.7-0.2,25c-0.3,8.6-4,13-12.2,15.6c-23.2,7.1-46.3,14.2-69.5,21.2
				c-10.3,3.1-15.1-0.3-15.2-11.3C190.5,300.6,190.5,287.1,190.5,273.6z"/>
			<path d="M252.1,380.2c4.4-11.4,8.4-21.9,12.5-32.7c-8,1.9-15.2,3.9-22.6,5.2c-7.4,1.3-14.9,1.9-23.8,3
				c7.6-8.4,14.9-15.3,20.8-23.3c9.8-13.2,22.4-21,38.3-24.5c8.4-1.8,16.5-7.1,24.7-7.1c8.2,0,16.3,5.3,24.7,7.1
				c16.1,3.5,28.7,11.6,38.6,24.9c5.8,7.8,12.9,14.6,19.5,21.8c-0.2,0.5-0.4,1-0.5,1.5c-14.7-2.6-29.3-5.2-44.5-8
				c3.8,10.1,7.9,20.7,11.9,31.3c-21.7-8.2-40.6-32.6-49.7-65.1C296.1,345.3,278.1,365.5,252.1,380.2z"/>
			<path d="M313.9,274.5c0,5.3,0.1,10.6,0,16c-0.2,5.5-2.2,7.3-7.7,7.5c-16,0.5-16.1,0.4-16.1-15.6c0-7.6-0.1-15.3,0-22.9
				c0.1-5.2,2.6-7.9,7.8-8.4c1.8-0.2,3.7-0.2,5.5-0.1c8.4,0.1,10.6,2.4,10.6,10.7C314,265.9,314,270.2,313.9,274.5
				C313.9,274.5,313.9,274.5,313.9,274.5z"/>
		</g>
	</g>
</g>
</svg>
