<?xml version="1.0" encoding="utf-8"?>
<!-- Generator: Adobe Illustrator 18.0.0, SVG Export Plug-In . SVG Version: 6.00 Build 0)  -->
<!DOCTYPE svg PUBLIC "-//W3C//DTD SVG 1.1//EN" "http://www.w3.org/Graphics/SVG/1.1/DTD/svg11.dtd">
<svg version="1.1" id="Layer_1" xmlns="http://www.w3.org/2000/svg" xmlns:xlink="http://www.w3.org/1999/xlink" x="0px" y="0px"
	 viewBox="0 0 600 600" enable-background="new 0 0 600 600" xml:space="preserve">
<g id="Person">
	<path d="M391.2,405.6c-60.3,0-119.8,0-180.1,0c0-9-0.1-17.7,0-26.4c0.2-9.7-0.6-19.6,1.1-29.1c2.8-15.7,13.6-26.1,26.6-34.4
		c2-1.3,4-2.3,6-3.5c7.4-4.4,13.7-5.3,22.1-0.2c24.7,14.8,49.5,12.8,73.6-2.6c2-1.3,5.3-2.1,7.3-1.3c14.7,5.8,28.1,13.7,36.1,27.8
		c3.4,5.9,6.4,12.8,6.8,19.5C391.9,371.8,391.2,388.3,391.2,405.6z"/>
	<path d="M301.2,310.5c-32.8,0-58.3-25.2-58.2-57.9c0.1-35.4,29.6-58.4,58.8-58.2c30.8,0.2,58.3,26.6,57.5,58.7
		C358.5,285.7,334,310.5,301.2,310.5z"/>
</g>
</svg>
